<?xml version="1.0" encoding="UTF-8"?>
<svg width="1200pt" height="1200pt" version="1.1" viewBox="0 0 1200 1200" xmlns="http://www.w3.org/2000/svg">
 <g fill="#ff814a">
  <path d="m631.2 199.59c0-4.9727-1.9766-9.7422-5.4922-13.258-3.5156-3.5156-8.2852-5.4922-13.258-5.4922h-281.25c-4.9727 0-9.7422 1.9766-13.258 5.4922-3.5156 3.5156-5.4922 8.2852-5.4922 13.258v450.19c0 4.9727 1.9766 9.7422 5.4922 13.258 3.5156 3.5156 8.2852 5.4922 13.258 5.4922h537.66c4.9727 0 9.7422-1.9766 13.258-5.4922 3.5156-3.5156 5.4922-8.2852 5.4922-13.258v-225.09c0-4.9727-1.9766-9.7422-5.4922-13.258-3.5156-3.5156-8.2852-5.4922-13.258-5.4922h-237.66zm-37.5 431.44h-243.75v-75h243.75zm0-112.5h-243.75v-75h243.75zm0-112.5h-243.75v-75h243.75zm0-112.5h-243.75v-75h243.75zm256.41 337.5h-218.91v-75h218.91zm0-187.59v75h-218.91v-75z"/>
  <path d="m1012.5 818.81v-493.01l-5.4922-5.4922-267.94-267.94-5.4961-5.4922h-471.07c-19.891 0-38.969 7.9023-53.031 21.969-14.066 14.062-21.969 33.141-21.969 53.031v632.66c-5.6836 3.2617-10.41 7.9609-13.703 13.629-3.2891 5.668-5.0312 12.102-5.0469 18.656v272.55c0.03125 24.855 9.918 48.684 27.492 66.258 17.574 17.574 41.402 27.461 66.258 27.492h675c24.855-0.03125 48.684-9.918 66.258-27.492 17.574-17.574 27.461-41.402 27.492-66.258v-208.26c-0.011719-6.5547-1.7539-12.992-5.043-18.664-3.293-5.6719-8.0195-10.375-13.707-13.641zm-487.5 229.59c-3.7695 5.418-8.4453 10.152-13.82 13.988-11.625 7.7539-25.406 11.633-39.375 11.082-11.062 0.35156-22.035-2.125-31.875-7.2031-8.4375-4.5781-15.598-11.188-20.828-19.234-5.3672-8.4023-9.1797-17.699-11.25-27.453-4.6016-21.09-4.6016-42.922 0-64.012 2.082-9.8086 5.9492-19.152 11.418-27.562 5.293-8.0352 12.488-14.641 20.941-19.238 9.8398-5.0742 20.812-7.5508 31.875-7.1992 12.637-0.24609 25.094 2.9961 36 9.375 5.5547 3.4102 10.223 8.0859 13.613 13.652 4.4219 7.3633 7.7969 15.309 10.031 23.605l-32.852 7.875h0.003906c-2.0742-6.332-5.4531-12.156-9.9219-17.102-4.7539-4.7266-11.309-7.1836-18-6.75-4.1133-0.085938-8.1836 0.88672-11.812 2.832-3.3242 1.8555-6.2031 4.4141-8.4375 7.5-2.3203 3.2383-4.1758 6.7852-5.5117 10.539-1.4297 3.9492-2.5234 8.0117-3.2617 12.148-0.74219 4.0859-1.2305 8.2109-1.4609 12.355-0.20703 4.0859-0.32031 7.7812-0.32031 11.117v0.003906c-0.83594 14.051 1.875 28.086 7.875 40.816 2.2383 4.3086 5.6836 7.8711 9.918 10.25 4.2344 2.3789 9.0703 3.4688 13.914 3.1367 3.7969 0.074218 7.5742-0.5625 11.137-1.875 2.9805-1.1328 5.7031-2.8555 8.0078-5.0625 2.3438-2.3125 4.3789-4.9219 6.0547-7.7617 1.9141-3.1992 3.6406-6.5039 5.1758-9.8984l33.75 8.7734c-2.7852 7.5195-6.4766 14.672-10.988 21.301zm124.99 12.02c-12.695 9.4219-28.301 14.07-44.082 13.125-12.512-0.078125-24.793-3.4141-35.625-9.6758-6.0547-3.2305-11.469-7.5391-15.977-12.711-4.9766-5.9766-8.9883-12.695-11.887-19.914l30-13.125c1.6992 3.6953 3.6523 7.2656 5.8516 10.688 1.9766 3.0859 4.4102 5.8555 7.2188 8.2109 2.7852 2.3086 5.9609 4.0977 9.375 5.2891 3.8672 1.3203 7.9336 1.9531 12.02 1.875 3.1016 0.003906 6.1992-0.29688 9.2422-0.89844 2.8164-0.53125 5.5156-1.5625 7.9688-3.0391 2.3242-1.4258 4.2266-3.4453 5.5117-5.8516 1.4688-2.8984 2.1719-6.125 2.043-9.375-0.17188-5.8359-3.4258-11.145-8.5469-13.949-7.1211-4.6055-14.746-8.3789-22.727-11.25-13.969-4.7461-27.102-11.652-38.926-20.473-9.1445-7.9375-14.129-19.637-13.52-31.727-0.22266-12.887 5.6172-25.133 15.77-33.074 11.129-8.9531 25.102-13.613 39.375-13.125 12.551-0.19531 24.898 3.1602 35.625 9.6758 5.3125 3.2148 10.023 7.3242 13.934 12.148 4.5352 5.7617 8.25 12.121 11.043 18.898l-33.094 10.125c-2.3008-5.8594-5.7852-11.184-10.238-15.637-4.7891-4.2148-11.051-6.3594-17.418-5.9609-2.4648 0.007813-4.9219 0.26953-7.332 0.78516-2.3555 0.48047-4.625 1.3164-6.7305 2.4766-4.3984 2.375-7.0664 7.043-6.8828 12.039 0.027343 2.3438 0.78125 4.625 2.1562 6.5234 1.9414 2.5469 4.4375 4.625 7.293 6.0742 7.7969 4.3047 15.953 7.918 24.375 10.801 12.336 4.1289 23.895 10.289 34.203 18.227 10.77 8.1602 16.762 21.156 15.973 34.648 0.80469 14.512-5.1055 28.59-16.031 38.176zm106.65 10.801h-38.25l-44.363-167.48h35.758l27.094 112.8 28.273-112.8h36zm218.36-257.61h-410.89l-45-51.488v0.003906c-7.1211-8.1406-17.406-12.809-28.219-12.809h-265.89v-627.45c0-9.9453 3.9492-19.484 10.984-26.516 7.0312-7.0352 16.57-10.984 26.516-10.984h444.56v192.94c0 19.891 7.9023 38.969 21.969 53.031 14.062 14.066 33.141 21.969 53.031 21.969h192.94z"/>
 </g>
</svg>
