<?xml version="1.0" encoding="UTF-8"?>
<svg width="512pt" height="512pt" version="1.1" viewBox="0 0 512 512" xmlns="http://www.w3.org/2000/svg">
 <g fill="#fff">
  <path d="m269.31 85.16c0-2.1211-0.84375-4.1562-2.3438-5.6562s-3.5352-2.3438-5.6562-2.3438h-120c-4.418 0-8 3.582-8 8v192.08c0 2.125 0.84375 4.1602 2.3438 5.6602s3.5352 2.3398 5.6562 2.3398h229.4c2.1211 0 4.1562-0.83984 5.6562-2.3398 1.5039-1.5 2.3438-3.5352 2.3438-5.6602v-96.039c0-2.1211-0.83984-4.1562-2.3438-5.6562-1.5-1.5-3.5352-2.3438-5.6562-2.3438h-101.4zm-16 184.08h-104v-32h104zm0-48h-104v-32h104zm0-48h-104v-32h104zm0-48h-104v-32h104zm109.4 144h-93.398v-32h93.398zm0-80.039v32h-93.398v-32z"/>
  <path d="m432 349.36v-210.35l-119.01-119.01h-200.99c-8.4883 0-16.625 3.3711-22.629 9.3711-6 6.0039-9.3711 14.141-9.3711 22.629v269.94c-2.4258 1.3906-4.4414 3.3945-5.8477 5.8164-1.4023 2.418-2.1445 5.1602-2.1523 7.957v116.29c0.011719 10.605 4.2305 20.773 11.73 28.27 7.4961 7.5 17.664 11.719 28.27 11.73h288c10.605-0.011719 20.773-4.2305 28.27-11.73 7.5-7.4961 11.719-17.664 11.73-28.27v-88.855c-0.003906-2.7969-0.74609-5.5469-2.1523-7.9648-1.4023-2.4219-3.4219-4.4258-5.8477-5.8203zm-208 97.961c-1.6094 2.3125-3.6016 4.332-5.8945 5.9688-4.9609 3.3086-10.844 4.9648-16.801 4.7266-4.7227 0.15234-9.4023-0.90625-13.602-3.0703-3.5977-1.9531-6.6523-4.7773-8.8867-8.2109-2.2891-3.582-3.9141-7.5508-4.8008-11.711-1.9609-8.9961-1.9609-18.312 0-27.312 0.88672-4.1836 2.5391-8.1719 4.8711-11.758 2.2617-3.4297 5.3281-6.25 8.9375-8.2109 4.1992-2.1641 8.8789-3.2227 13.602-3.0703 5.3906-0.10547 10.703 1.2773 15.359 4 2.3672 1.4531 4.3594 3.4492 5.8086 5.8242 1.8828 3.1445 3.3242 6.5312 4.2773 10.07l-14.016 3.3594v0.003907c-0.88281-2.7031-2.3242-5.1875-4.2305-7.2969-2.0312-2.0156-4.8281-3.0664-7.6797-2.8789-1.7578-0.039062-3.4922 0.375-5.043 1.207-1.418 0.78906-2.6445 1.8828-3.5977 3.1992-0.99219 1.3828-1.7812 2.8945-2.3516 4.4961-0.61328 1.6836-1.0781 3.418-1.3945 5.1836-0.31641 1.7422-0.52344 3.5039-0.62109 5.2734-0.089844 1.7422-0.13672 3.3203-0.13672 4.7422-0.35547 5.9961 0.79688 11.984 3.3594 17.418 1.9492 3.7578 5.9453 6 10.168 5.7109 1.6211 0.03125 3.2305-0.24219 4.75-0.80078 1.2734-0.48438 2.4336-1.2188 3.418-2.1602 1-0.98828 1.8672-2.1016 2.582-3.3125 0.81641-1.3633 1.5547-2.7734 2.2109-4.2227l14.398 3.7422c-1.1875 3.2109-2.7617 6.2617-4.6875 9.0898zm53.328 5.1289c-5.4141 4.0195-12.074 6-18.809 5.5977-5.3398-0.03125-10.578-1.4531-15.199-4.125-2.582-1.3789-4.8945-3.2188-6.8164-5.4258-2.125-2.5508-3.8359-5.418-5.0703-8.4961l12.801-5.6016h-0.003906c0.72656 1.5781 1.5586 3.1016 2.4961 4.5625 0.84375 1.3164 1.8828 2.4961 3.082 3.5039 1.1875 0.98438 2.543 1.7461 4 2.2539 1.6484 0.56641 3.3828 0.83594 5.1289 0.80078 1.3242 0.003907 2.6445-0.125 3.9414-0.38281 1.2031-0.22656 2.3555-0.66797 3.4023-1.2969 0.99219-0.60938 1.8008-1.4688 2.3516-2.4961 0.625-1.2383 0.92578-2.6133 0.87109-4-0.074218-2.4922-1.4609-4.7539-3.6484-5.9531-3.0391-1.9648-6.2891-3.5742-9.6953-4.7969-5.9609-2.0273-11.562-4.9727-16.609-8.7383-3.8984-3.3867-6.0273-8.375-5.7656-13.535-0.097656-5.5 2.3945-10.723 6.7266-14.113 4.7461-3.8203 10.711-5.8086 16.801-5.5977 5.3555-0.082031 10.621 1.3477 15.199 4.125 2.2656 1.375 4.2773 3.1289 5.9453 5.1875 1.9336 2.457 3.5195 5.168 4.7109 8.0625l-14.121 4.3203c-0.98047-2.5-2.4688-4.7734-4.3672-6.6719-2.043-1.8008-4.7148-2.7148-7.4336-2.543-1.0508 0-2.0977 0.11328-3.125 0.33594-1.0078 0.20312-1.9766 0.55859-2.875 1.0547-1.875 1.0117-3.0117 3.0039-2.9336 5.1367 0.011719 1 0.33203 1.9727 0.91797 2.7812 0.83203 1.0898 1.8945 1.9766 3.1133 2.5938 3.3242 1.8359 6.8047 3.3789 10.398 4.6094 5.2656 1.7617 10.195 4.3867 14.594 7.7734 4.5938 3.4844 7.1523 9.0273 6.8164 14.785 0.34375 6.1914-2.1797 12.199-6.8398 16.289zm45.504 4.6094h-16.32l-18.926-71.457h15.258l11.555 48.125 12.066-48.125h15.359zm93.168-109.91h-175.31l-19.199-21.969c-3.0391-3.4727-7.4258-5.4648-12.039-5.4648h-113.45v-267.71c0-4.2422 1.6875-8.3125 4.6875-11.312s7.0703-4.6875 11.312-4.6875h189.68v82.32c0 8.4883 3.3711 16.625 9.3711 22.629 6.0039 6 14.141 9.3711 22.629 9.3711h82.32z"/>
 </g>
</svg>
